<svg id="Layer_1" data-name="Layer 1" xmlns="http://www.w3.org/2000/svg" viewBox="0 0 546 370"><defs><style>.cls-1{fill:#fff;}.cls-2{fill:#eaeaea;}</style></defs><path class="cls-1" d="M412.91,0H1V236.67C1,310.31,60.58,370,134.08,370H546V133.33C546,59.69,486.42,0,412.91,0ZM179.67,166.69a1.31,1.31,0,0,1-1.31,1.31H117.1a1.31,1.31,0,0,1-1.31-1.31V118.61l-31.87,1.27L83,97.33l127.56-5.11.9,22.56-31.82,1.27Zm133.1,114.22a129.58,129.58,0,0,1-82.47,16.8l2.95-22.38a105.09,105.09,0,0,0,109.43-59.6l20.37,9.66A129.88,129.88,0,0,1,312.77,280.91Zm146.49-161-31-1.24v48.05a1.31,1.31,0,0,1-1.31,1.31H365.64a1.31,1.31,0,0,1-1.31-1.31V116.08l-32.64-1.3.9-22.56,127.57,5.11Z"/><path class="cls-2" d="M0,176.09H75c9.28,0,16.81,6.83,16.81,15.26v69.48c0,8.43-7.53,15.27-16.81,15.27H6.69S0,267.5,0,247.3Z"/><path class="cls-2" d="M546,276.1H482.7A26.89,26.89,0,0,1,456,249.05V203.13a26.89,26.89,0,0,1,26.74-27H546"/></svg>